ffmpeg version 2.8.11-0ubuntu0.16.04.1 Copyright (c) 2000-2017 the FFmpeg developers
  built with gcc 5.4.0 (Ubuntu 5.4.0-6ubuntu1~16.04.4) 20160609
  configuration: --prefix=/usr --extra-version=0ubuntu0.16.04.1 --build-suffix=-ffmpeg --toolchain=hardened --libdir=/usr/lib/x86_64-linux-gnu --incdir=/usr/include/x86_64-linux-gnu --cc=cc --cxx=g++ --enable-gpl --enable-shared --disable-stripping --disable-decoder=libopenjpeg --disable-decoder=libschroedinger --enable-avresample --enable-avisynth --enable-gnutls --enable-ladspa --enable-libass --enable-libbluray --enable-libbs2b --enable-libcaca --enable-libcdio --enable-libflite --enable-libfontconfig --enable-libfreetype --enable-libfribidi --enable-libgme --enable-libgsm --enable-libmodplug --enable-libmp3lame --enable-libopenjpeg --enable-libopus --enable-libpulse --enable-librtmp --enable-libschroedinger --enable-libshine --enable-libsnappy --enable-libsoxr --enable-libspeex --enable-libssh --enable-libtheora --enable-libtwolame --enable-libvorbis --enable-libvpx --enable-libwavpack --enable-libwebp --enable-libx265 --enable-libxvid --enable-libzvbi --enable-openal --enable-opengl --enable-x11grab --enable-libdc1394 --enable-libiec61883 --enable-libzmq --enable-frei0r --enable-libx264 --enable-libopencv
  libavutil      54. 31.100 / 54. 31.100
  libavcodec     56. 60.100 / 56. 60.100
  libavformat    56. 40.101 / 56. 40.101
  libavdevice    56.  4.100 / 56.  4.100
  libavfilter     5. 40.101 /  5. 40.101
  libavresample   2.  1.  0 /  2.  1.  0
  libswscale      3.  1.101 /  3.  1.101
  libswresample   1.  2.101 /  1.  2.101
  libpostproc    53.  3.100 / 53.  3.100
[mp3 @ 0x11998c0] Unknown attached picture mimetype: ('image/png', None), skipping.
[mp3 @ 0x11998c0] Skipping 0 bytes of junk at 17522.
Input #0, mp3, from 'jan-kochanowski-piesni-ksiegi-wtore-piesn-iii-nie-wierz-fortunie-co-siedzisz-wysoko.mp3':
  Metadata:
    title           : Jan Kochanowski, Pieśni, Księgi wtóre, Pieśń III (Nie wierz Fortunie, co siedzisz wysoko...)
    artist          : Krzysztof Skonieczny
    album           : Wolne Lektury
    encoder         : Lavf53.21.0
    genre           : Speech
    originator_reference: aVCB5bG3u7iaaaGk
    date            : 2008-10-30
    performer       : Iwo Vedral
    album_artist    : Fundacja Nowoczesna Polska
    time_reference  : 398520893
    copyright       : 2008 Fundacja Nowoczesna Polska. Licensed to the public under http://creativecommons.org/licenses/by-sa/3.0/deed.pl verify at http://wolnelektury.pl/katalog/lektura/piesni-ksiegi-wtore-piesn-iii/
    creation_time   : 0014-59-51
    encoded_by      : Pro Tools
    publisher       : Fundacja Nowoczesna Polska
  Duration: 00:01:28.79, start: 0.000000, bitrate: 65 kb/s
    Stream #0:0: Audio: mp3, 44100 Hz, mono, s16p, 64 kb/s
Output #0, null, to 'pipe:':
  Metadata:
    title           : Jan Kochanowski, Pieśni, Księgi wtóre, Pieśń III (Nie wierz Fortunie, co siedzisz wysoko...)
    artist          : Krzysztof Skonieczny
    album           : Wolne Lektury
    publisher       : Fundacja Nowoczesna Polska
    genre           : Speech
    originator_reference: aVCB5bG3u7iaaaGk
    date            : 2008-10-30
    performer       : Iwo Vedral
    album_artist    : Fundacja Nowoczesna Polska
    time_reference  : 398520893
    copyright       : 2008 Fundacja Nowoczesna Polska. Licensed to the public under http://creativecommons.org/licenses/by-sa/3.0/deed.pl verify at http://wolnelektury.pl/katalog/lektura/piesni-ksiegi-wtore-piesn-iii/
    encoded_by      : Pro Tools
    encoder         : Lavf56.40.101
    Stream #0:0: Audio: pcm_s16le, 44100 Hz, mono, s16, 705 kb/s
    Metadata:
      encoder         : Lavc56.60.100 pcm_s16le
Stream mapping:
  Stream #0:0 -> #0:0 (mp3 (native) -> pcm_s16le (native))
Press [q] to stop, [?] for help
[silencedetect @ 0x11aca80] silence_start: -0.00367347
[silencedetect @ 0x11aca80] silence_end: 1.17551 | silence_duration: 1.17918
[silencedetect @ 0x11aca80] silence_start: 2.26898
[silencedetect @ 0x11aca80] silence_end: 3.00408 | silence_duration: 0.735102
[silencedetect @ 0x11aca80] silence_start: 3.60122
[silencedetect @ 0x11aca80] silence_end: 4.28408 | silence_duration: 0.682857
[silencedetect @ 0x11aca80] silence_start: 5.16857
[silencedetect @ 0x11aca80] silence_end: 6.03429 | silence_duration: 0.865714
[silencedetect @ 0x11aca80] silence_start: 6.97102
[silencedetect @ 0x11aca80] silence_end: 8.75102 | silence_duration: 1.78
[silencedetect @ 0x11aca80] silence_start: 11.1245
[silencedetect @ 0x11aca80] silence_end: 11.7551 | silence_duration: 0.630612
[silencedetect @ 0x11aca80] silence_start: 14.1547
[silencedetect @ 0x11aca80] silence_end: 14.7331 | silence_duration: 0.578367
[silencedetect @ 0x11aca80] silence_start: 16.6886
[silencedetect @ 0x11aca80] silence_end: 17.2931 | silence_duration: 0.60449
[silencedetect @ 0x11aca80] silence_start: 19.8494
[silencedetect @ 0x11aca80] silence_end: 20.6629 | silence_duration: 0.813469
[silencedetect @ 0x11aca80] silence_start: 23.1408
[silencedetect @ 0x11aca80] silence_end: 24.0327 | silence_duration: 0.891837
[silencedetect @ 0x11aca80] silence_start: 25.9359
[silencedetect @ 0x11aca80] silence_end: 26.6188 | silence_duration: 0.682857
[silencedetect @ 0x11aca80] silence_start: 27.7384
[silencedetect @ 0x11aca80] silence_end: 28.369 | silence_duration: 0.630612
[silencedetect @ 0x11aca80] silence_start: 29.6192
[silencedetect @ 0x11aca80] silence_end: 30.1714 | silence_duration: 0.552245
[silencedetect @ 0x11aca80] silence_start: 32.5971
[silencedetect @ 0x11aca80] silence_end: 33.698 | silence_duration: 1.10082
[silencedetect @ 0x11aca80] silence_start: 36.0192
[silencedetect @ 0x11aca80] silence_end: 36.5453 | silence_duration: 0.526122
[silencedetect @ 0x11aca80] silence_start: 38.971
[silencedetect @ 0x11aca80] silence_end: 39.4971 | silence_duration: 0.526122
[silencedetect @ 0x11aca80] silence_start: 44.5612
[silencedetect @ 0x11aca80] silence_end: 45.5576 | silence_duration: 0.996327
[silencedetect @ 0x11aca80] silence_start: 50.4388
[silencedetect @ 0x11aca80] silence_end: 50.991 | silence_duration: 0.552245
[silencedetect @ 0x11aca80] silence_start: 55.8722
[silencedetect @ 0x11aca80] silence_end: 56.8424 | silence_duration: 0.970204
[silencedetect @ 0x11aca80] silence_start: 68.3588
[silencedetect @ 0x11aca80] silence_end: 69.8776 | silence_duration: 1.51878
[silencedetect @ 0x11aca80] silence_start: 71.389
[silencedetect @ 0x11aca80] silence_end: 72.5943 | silence_duration: 1.20531
[silencedetect @ 0x11aca80] silence_start: 74.2102
[silencedetect @ 0x11aca80] silence_end: 75.102 | silence_duration: 0.891837
[silencedetect @ 0x11aca80] silence_start: 78.1024
[silencedetect @ 0x11aca80] silence_end: 78.8114 | silence_duration: 0.70898
[silencedetect @ 0x11aca80] silence_start: 79.7482
[silencedetect @ 0x11aca80] silence_end: 80.5878 | silence_duration: 0.839592
[silencedetect @ 0x11aca80] silence_start: 81.8902
[silencedetect @ 0x11aca80] silence_end: 83.2 | silence_duration: 1.3098
[silencedetect @ 0x11aca80] silence_start: 86.1482
size=N/A time=00:01:28.79 bitrate=N/A    
video:0kB audio:7648kB subtitle:0kB other streams:0kB global headers:0kB muxing overhead: unknown
